<svg id="Layer_1" data-name="Layer 1" xmlns="http://www.w3.org/2000/svg" xmlns:xlink="http://www.w3.org/1999/xlink" viewBox="0 0 256 256"><defs><style>.cls-1{fill:url(#linear-gradient);}.cls-2{fill:#fff;}.cls-3{fill:url(#linear-gradient-2);}</style><linearGradient id="linear-gradient" y1="128" x2="256" y2="128" gradientUnits="userSpaceOnUse"><stop offset="0" stop-color="#003992"/><stop offset="0.63" stop-color="#0043aa"/><stop offset="1" stop-color="#005ae6"/></linearGradient><linearGradient id="linear-gradient-2" x1="28" y1="219" x2="223" y2="219" gradientUnits="userSpaceOnUse"><stop offset="0" stop-color="#003992"/><stop offset="1" stop-color="#240077"/></linearGradient></defs><rect class="cls-1" width="256" height="256"/><rect class="cls-2" x="164" y="94" width="25" height="85" rx="3.15" transform="translate(40 313) rotate(-90)"/><rect class="cls-2" x="164" y="28" width="25" height="85" rx="3.15" transform="translate(106 247) rotate(-90)"/><path class="cls-3" d="M146.27,202.09,194,204.82s64-2.18,1.8,17.49S102.12,248,102.12,248s45-25.69,2.71-26.23-80.2-11.48-76.59-18,46-10.39,47.75-10.93,30.54-6,49.51,0S146.27,202.09,146.27,202.09Z"/><rect class="cls-2" x="164" y="160" width="25" height="85" rx="3.15" transform="translate(-26 379) rotate(-90)"/><rect class="cls-2" x="68.5" y="153.5" width="25" height="98" rx="3.15" transform="translate(-121.5 283.5) rotate(-90)"/><rect class="cls-2" x="69" y="57" width="25" height="150" rx="3.15"/><rect class="cls-2" x="105" y="57" width="25" height="150" rx="3.15"/><rect class="cls-2" x="32" y="57" width="25" height="150" rx="3.15"/></svg>